PathFileType	4	(X/Y/Z)	C:/Users/beibeiliu/ov580/test_trc/User2\sequence.7_training_dense_left.trc
DataRate	CameraRate	NumFrames	NumMarkers	Units	OrigDataRate	OrigDataStartFrame	OrigNumFrames
120	120	19	19	mm	120	53	79
Frame#	Time	ThumbCMC			ThumbMCP			ThumbIP			ThumbTip			IndexMCP			IndexPIP			IndexTip			MiddleMCP			MiddlePIP			MiddleTip			RingMCP			RingPIP			RingTip			PinkyMCP			PinkyPIP			PinkyTip			BackHand1			BackHand2			BackHand3	
		X0	Y0	Z0	X1	Y1	Z1	X2	Y2	Z2	X3	Y3	Z3	X4	Y4	Z4	X5	Y5	Z5	X6	Y6	Z6	X7	Y7	Z7	X8	Y8	Z8	X9	Y9	Z9	X10	Y10	Z10	X11	Y11	Z11	X12	Y12	Z12	X13	Y13	Z13	X14	Y14	Z14	X15	Y15	Z15	X16	Y16	Z16	X17	Y17	Z17	X18	Y18	Z18	
52	0.433333	-210.156	3.95631	-25.2166	-203.15	18.726	-47.1887	-192.348	31.9151	-84.4054	-183.083	43.6669	-101.107	-148.026	-23.6691	-79.4022	-118.599	-12.7108	-71.5301	-136.545	0.850811	-41.5969	-131.913	-39.8585	-71.7559	-108.024	-21.102	-57.0854	-134.444	-7.47012	-27.5676	-128.317	-54.6839	-51.254	-109.445	-32.4857	-37.8415	-140.084	-26.2128	-18.109	-128.665	-65.6707	-32.2068	-113.414	-39.2451	-18.9932	-143.763	-32.886	-4.03951	-186.73	-60.1679	-30.5895	-215.041	-60.3916	-5.50981	-210.255	-30.3845	-38.6307	
53	0.441667	-217.117	-1.87549	-30.9975	-211.015	7.71508	-61.1367	-205.553	19.2807	-93.6701	-198.013	28.9175	-111.214	-151.525	-27.9473	-86.0936	-123.007	-10.9788	-81.5405	-138.825	4.49928	-55.6195	-133.92	-37.6937	-79.7024	-110.114	-15.6805	-63.8743	-137.326	-6.10841	-36.3575	-125.425	-48.2851	-60.3499	-108.104	-28.41	-46.5489	-137.175	-19.0186	-28.3142	-125.916	-59.865	-38.6489	-111.226	-31.7015	-30.0754	-138.348	-26.109	-13.605	-183.92	-67.3988	-28.1194	-207.731	-64.5155	-8.03578	-209.696	-38.3003	-42.2657	
54	0.45	-219.216	-10.2257	-38.9273	-217.235	-1.42931	-62.8805	-217.883	7.71996	-97.8053	-213.069	16.1134	-118.439	-159.839	-37.2734	-95.1516	-131.586	-17.4737	-93.7825	-146.724	-2.03052	-68.5485	-140.988	-49.9765	-86.03	-118.485	-21.8133	-78.5201	-143.663	-9.57785	-50.5479	-129.45	-57.1916	-66.7031	-112.015	-31.6993	-57.5472	-140.417	-23.5242	-40.1615	-125.26	-62.8511	-48.1197	-112.726	-34.6042	-42.6475	-139.632	-29.7494	-26.1712	-182.904	-71.9401	-32.3873	-204.229	-67.8254	-5.34715	-212.156	-44.3136	-41.608	
55	0.458333	-219.51	-11.4316	-36.6853	-221.372	-1.94933	-65.9321	-222.341	5.73667	-96.3712	-225.451	16.6012	-121.307	-174.645	-45.6935	-99.9271	-145.263	-30.7977	-105.155	-155.26	-11.6284	-77.0702	-156.834	-57.6836	-96.495	-129.084	-33.1934	-93.5281	-145.703	-20.9044	-60.8596	-145.191	-66.1645	-78.9032	-121.125	-41.5259	-72.0158	-145.186	-31.897	-50.0957	-135.282	-74.5398	-57.5845	-119.273	-47.0145	-58.0162	-143.739	-38.394	-32.6396	-191.881	-72.6933	-36.3209	-209.68	-68.06	-10.4649	-220.758	-47.7763	-39.189	
56	0.466667	-220.402	-8.97822	-36.8323	-222.618	2.23181	-62.7921	-227.671	13.0187	-93.9986	-227.45	23.1426	-115.105	-190.375	-47.9646	-107.183	-161.064	-37.6592	-114.163	-162.693	-18.6049	-85.7424	-174.466	-64.8986	-104.57	-143.139	-47.3134	-100.593	-157.803	-32.8084	-66.2636	-162.879	-75.9815	-86.7682	-135.279	-56.7431	-83.1292	-156.608	-42.4292	-58.3288	-155.938	-84.5063	-66.2897	-131.869	-62.6202	-69.266	-149.573	-49.3631	-41.7462	-202.882	-80.004	-41.4673	-218.249	-70.9654	-7.2569	-226.016	-43.4685	-41.3435	
57	0.475	-216.808	-6.7934	-29.9059	-218.536	4.05496	-56.6612	-222.891	14.8194	-90.93	-223.573	26.4194	-111.2	-205.302	-45.5269	-110.729	-176.242	-43.7251	-116.866	-173.542	-25.3658	-86.7761	-195.555	-67.0023	-108.46	-162.703	-58.2769	-110.962	-169.23	-40.4265	-71.5232	-181.492	-79.8908	-97.6282	-154.046	-66.299	-95.035	-164.741	-51.9407	-65.9497	-175.942	-93.0669	-75.9525	-146.779	-74.4627	-75.9645	-158.33	-60.1002	-48.8514	-217.565	-77.5908	-40.7262	-227.991	-65.626	-10.316	-233.669	-40.0508	-35.8244	
58	0.483333	-213.069	0.675346	-26.9495	-212.898	10.3666	-53.674	-216.897	26.9055	-81.4895	-217.705	39.7633	-105.069	-221.977	-34.9638	-107.809	-193.854	-39.7029	-121.765	-181.731	-26.2876	-87.0262	-216.698	-57.7552	-108.516	-179.381	-55.3132	-113.235	-178.652	-41.6761	-75.9114	-206.85	-76.0699	-100.138	-174.365	-70.5695	-101.302	-177.253	-55.9719	-71.2783	-200.315	-92.0017	-84.3763	-170.225	-79.8603	-87.6585	-174.786	-66.4326	-55.5299	-234.391	-66.2009	-45.4609	-235.116	-61.3045	-8.2932	-238.596	-31.4659	-33.9507	
59	0.491667	-203.283	3.11596	-22.9177	-202.043	15.1223	-49.5937	-203.103	34.5517	-76.0031	-201.606	48.0412	-98.5989	-227.068	-19.2219	-109.938	-199.153	-27.1715	-122.413	-185.267	-27.0683	-92.9651	-228.314	-44.7723	-111.564	-195.589	-50.0292	-119.914	-185.983	-45.9114	-79.9907	-222.28	-65.5109	-105.189	-191.016	-65.3863	-106.199	-189.918	-56.3471	-70.194	-220.989	-82.5773	-86.5625	-186.161	-79.7504	-90.8108	-187.171	-69.4702	-63.4986	-244.739	-58.6831	-39.9346	-242.571	-54.3071	-7.98393	-237.26	-16.8993	-30.2428	
60	0.5	-192.394	1.64635	-19.9284	-189.097	13.8113	-45.1947	-186.5	38.2076	-73.8927	-181.741	50.076	-90.7122	-224.275	-9.67693	-100.833	-203.223	-24.6531	-121.973	-183.152	-27.6583	-88.2323	-229.066	-29.0592	-109.152	-201.221	-45.8044	-120.105	-184.883	-41.2705	-80.0172	-229.802	-55.0411	-104.083	-199.912	-65.665	-107.906	-192.554	-55.6969	-75.3985	-230.053	-71.8248	-88.7969	-198.77	-79.5946	-95.1432	-190.754	-71.6817	-64.4275	-246.281	-44.5219	-43.0535	-240.515	-44.2652	-5.23618	-230.456	-15.2876	-26.8153	
61	0.508333	-179.016	-1.37224	-17.072	-171.361	12.4117	-40.0131	-163.15	34.414	-63.8459	-155.265	50.6136	-82.4814	-215.854	-1.82944	-95.8649	-197.927	-19.2163	-118.311	-176.349	-25.6565	-88.9511	-223.509	-19.0659	-106.311	-198.699	-41.449	-115.995	-184.832	-42.1168	-78.6131	-231.981	-45.0477	-99.9318	-204.009	-58.0209	-108.515	-195.938	-56.5773	-72.2067	-235.851	-63.6335	-89.634	-204.38	-73.7777	-95.3325	-197.153	-67.3586	-65.2765	-243.126	-34.9589	-39.8751	-236.728	-36.9024	-5.47808	-217.959	-3.986	-19.7739	
62	0.516667	-166.657	-7.91194	-10.6594	-157.019	8.13213	-35.5564	-144.188	25.7889	-54.9811	-133.988	42.6076	-75.3036	-203.807	10.1283	-91.6292	-192.076	-7.76162	-114	-175.894	-24.9768	-82.8875	-217.273	-4.16067	-97.6655	-196.347	-29.8285	-113.397	-186.908	-42.0038	-77.1211	-230.189	-27.5881	-96.9366	-208.253	-45.0079	-108.126	-197.928	-50.3724	-70.8146	-238.784	-44.548	-84.1887	-213.238	-63.3443	-95.6137	-201.075	-65.6571	-63.4442	-235.721	-20.1889	-28.1714	-228.881	-26.9538	1.26742	-205.99	-1.55209	-14.2762	
63	0.525	-159.757	-15.0639	-7.83244	-145.456	-0.515421	-28.5872	-129.579	17.5881	-49.2615	-117.11	30.8344	-69.4802	-191.771	18.1324	-83.3125	-185.498	-1.5262	-108.152	-172.109	-22.4604	-81.2395	-210.866	7.45647	-92.5943	-198.265	-17.4557	-111.609	-185.086	-35.7887	-77.5966	-227.153	-10.283	-88.0068	-210.643	-33.1795	-104.736	-200.836	-45.72	-72.6907	-238.183	-25.4893	-76.5297	-221.711	-49.3445	-95.8501	-204.765	-56.7288	-66.7327	-227.647	-9.6718	-23.7971	-228.266	-21.6782	8.73739	-195.441	2.78441	-9.57129	
64	0.533333	-158.049	-20.568	-6.99863	-138.303	-10.3399	-24.5703	-118.085	11.8426	-48.2671	-107.783	18.9209	-66.8624	-185.638	20.6976	-80.7544	-181.905	1.33306	-106.035	-169.947	-21.9751	-85.4659	-203.129	15.0277	-87.5745	-197.641	-14.2137	-109.485	-187.325	-35.8771	-77.432	-225.818	-1.8513	-87.1752	-213.851	-25.2373	-104.533	-200.604	-41.2233	-73.1727	-235.343	-16.1051	-74.473	-223.59	-39.0396	-95.9535	-211.619	-57.7442	-71.8124	-224.339	-5.51528	-20.4606	-221.265	-18.807	9.807	-187.574	-1.23105	-6.87233	
65	0.541667	-155.091	-24.8171	-6.45579	-136.783	-10.7489	-27.8886	-117.341	0.846288	-46.5145	-103.994	12.8653	-66.1945	-180.489	18.9354	-74.3739	-182.231	3.41091	-105.448	-170.628	-27.0045	-87.353	-200.657	15.4507	-86.146	-200.154	-11.4809	-110.882	-191.145	-38.6927	-85.4349	-218.853	1.07828	-85.6379	-212.386	-22.5056	-104.718	-202.942	-43.6834	-77.8452	-234.199	-13.3915	-75.155	-227.888	-35.6216	-97.2306	-208.624	-54.6259	-77.2182	-220.865	-8.03511	-18.4272	-221.975	-16.361	9.30498	-187.629	-3.00748	-4.78378	
66	0.55	-151.993	-27.5883	-6.77305	-133.711	-16.6891	-25.2996	-115.617	-1.61819	-49.439	-100.097	7.46019	-67.5366	-177.761	16.1138	-73.654	-181.157	7.53021	-107.635	-171.587	-27.587	-100.046	-202.184	15.3985	-85.331	-198.447	-1.49661	-115.384	-190.02	-39.8885	-95.9593	-220.307	2.37978	-83.5526	-218.021	-16.5802	-109.029	-203.483	-43.4833	-91.7929	-236.289	-13.9081	-68.1181	-228.353	-27.3363	-98.3427	-216.786	-56.2659	-88.5423	-218.415	-8.96821	-18.3504	-219.009	-19.1223	8.32733	-184.456	-4.88447	-5.27849	
67	0.558333	-149.635	-30.0447	-7.45986	-132.477	-22.901	-26.9966	-110.718	-7.79231	-50.525	-99.7771	-0.809405	-72.3213	-178.098	11.6727	-74.0233	-179.427	11.9767	-107.494	-174.808	-22.1541	-118.208	-201.45	12.9879	-82.4427	-202.421	2.57771	-118.222	-196.489	-36.0305	-118.393	-220.569	3.31534	-79.0543	-219.472	-8.5938	-110.77	-206.681	-40.5822	-107.638	-237.098	-13.515	-68.8638	-233.856	-22.3287	-101.023	-217.884	-51.3792	-101.744	-217.981	-11.4755	-20.2533	-215.557	-20.3175	6.27629	-182.368	-8.37696	-8.7584	
68	0.566667	-147.868	-34.698	-8.33225	-128.597	-27.7795	-28.3641	-110.982	-17.4312	-51.2268	-92.999	-11.2786	-71.1424	-172.307	8.34025	-78.3441	-173.754	12.7956	-113.091	-175.952	-11.2921	-134.21	-200.617	10.4522	-83.0387	-205.062	9.08713	-118.479	-199.977	-21.4599	-141.67	-218.931	-0.240501	-76.3197	-224.113	-0.914236	-110.237	-218.838	-28.0606	-129.489	-240.33	-19.0116	-65.3121	-240.851	-17.3071	-99.5413	-228.877	-37.5907	-118.681	-215.596	-15.3441	-26.7635	-216.853	-20.9225	5.71014	-182.295	-12.6779	-13.5794	
69	0.575	-149.724	-38.2497	-9.18209	-127.785	-30.7992	-31.5385	-105.436	-21.9077	-53.615	-87.7201	-20.446	-69.389	-164.836	1.65769	-82.4959	-165.598	8.60591	-114.949	-166.76	0.0907496	-143.333	-199.605	4.18816	-89.688	-204.287	7.94712	-120.511	-204.242	-6.26372	-156.484	-223.346	-7.94219	-80.3247	-230.282	-3.12649	-108.822	-226.64	-14.821	-140.364	-241.499	-24.9033	-66.6747	-248.265	-20.5476	-96.1723	-250.623	-27.7968	-121.748	-216.002	-19.5545	-25.2282	-215.434	-25.237	6.86877	-180.706	-15.7722	-15.1717	
70	0.583333	-145.194	-38.0727	-9.51961	-128.577	-36.1773	-30.9422	-102.484	-29.5803	-54.3189	-84.156	-28.0275	-69.4847	-162.406	-5.92798	-86.4613	-158.21	0.236765	-110.862	-160.617	3.18025	-145.389	-193.488	-5.12043	-91.6685	-200.466	-0.138822	-122.411	-200.159	0.661418	-155.472	-222.913	-15.9305	-83.2358	-228.157	-11.3755	-114.733	-233.636	-12.823	-145.661	-242.608	-32.0421	-69.5274	-254.028	-30.5768	-91.137	-258.681	-26.8253	-120.341	-215.979	-21.7318	-30.052	-209.423	-24.8375	3.49951	-178.927	-17.3482	-16.6816	
